<?xml version="1.0"?><svg width="793.701" height="1122.52" xmlns="http://www.w3.org/2000/svg">
 <title>blue-leaf-1</title>
 <g>
  <title>Layer 1</title>
  <g id="layer1">
   <path d="m-745.169983,-611.573975l0,0" id="path12384" fill="#3c6492"/>
   <path d="m-745.879028,-533.234985l0,0" id="path12382" fill="#3c6492"/>
   <path d="m-688.302002,-611.573975l0,0" id="path12376" fill="#3c6492"/>
   <path d="m-688.049011,-533.234985l0,0" id="path12374" fill="#3c6492"/>
   <path d="m-507.975006,-611.573975l0,0" id="path12366" fill="#3c6492"/>
   <path d="m-509.139008,-533.234985l0,0" id="path12364" fill="#3c6492"/>
   <path d="m-326.432007,-611.573975l0,0" id="path12356" fill="#3c6492"/>
   <path d="m-326.63501,-533.234985l0,0" id="path12354" fill="#3c6492"/>
   <path d="m107.568298,763.679199c159.413483,-15.116821 245.469757,-97.35437 381.899384,-357.995972c0,0 -180.4505,365.371033 -362.268028,338.937439l-19.63134,19.058533l-0.000023,0l0.000008,0z" transform="rotate(13.1119 298.518 584.681)" fill="#3c6492" id="path1383"/>
   <path d="m636.782837,238.330231c-65.861633,106.402588 -195.983795,184.138214 -293.327942,241.926178c-48.672852,28.89505 -91.499222,56.655762 -116.378754,90.438965c-24.877792,33.784058 -31.258759,73.443054 -8.109818,124.821533l18.529419,3.934448c0,0 -2.689514,-6.941956 -3.103699,-7.89978c24.020248,2.58551 116.55751,7.36615 207.93309,-39.70636c105.905823,-54.556519 206.79364,-170.285217 194.090149,-413.522217l0.367554,0.007233zm-15.834656,29.473022c3.296204,221.270508 -92.169556,326.697723 -189.1492,376.656158c-93.24881,48.037598 -184.253128,45.719482 -198.546341,45.057861c-20.550491,-47.964355 -14.270844,-83.872559 8.592712,-114.918518c23.422195,-31.805603 64.593613,-58.737549 112.941757,-87.439575c89.19986,-52.953583 202.323669,-111.994537 266.161072,-219.355927z" fill="#3c6492" id="path1381"/>
  </g>
 </g>
</svg>