<?xml version="1.0" standalone="no"?>
<!DOCTYPE svg PUBLIC "-//W3C//DTD SVG 20010904//EN"
 "http://www.w3.org/TR/2001/REC-SVG-20010904/DTD/svg10.dtd">
<svg version="1.0" xmlns="http://www.w3.org/2000/svg"
 width="175.000000pt" height="57.000000pt" viewBox="0 0 175.000000 57.000000"
 preserveAspectRatio="xMidYMid meet">
<metadata>
Created by potrace 1.16, written by Peter Selinger 2001-2019
</metadata>
<g transform="translate(0.000000,57.000000) scale(0.100000,-0.100000)"
fill="#fffff" stroke="none">
<path d="M0 478 l0 -91 21 19 c24 21 52 10 57 -24 5 -30 -29 -45 -56 -26 -22
15 -22 15 -22 -67 0 -70 2 -80 14 -69 25 20 61 8 64 -22 4 -31 -25 -46 -58
-28 -19 10 -20 8 -20 -80 l0 -90 97 0 c94 0 96 0 79 19 -23 26 -17 65 10 69
11 2 27 -4 34 -14 12 -14 12 -20 -2 -45 l-17 -29 96 0 c94 0 96 0 79 19 -23
26 -17 65 10 69 11 2 27 -4 34 -14 12 -14 12 -20 -2 -45 l-17 -29 674 0 675 0
0 285 0 285 -670 0 -671 0 11 -20 c18 -33 3 -62 -28 -58 -30 3 -42 39 -22 64
11 12 -1 14 -80 14 l-93 0 19 -21 c23 -25 9 -54 -27 -54 -28 0 -39 36 -19 61
11 12 0 14 -79 14 l-91 0 0 -92z m339 17 c28 -31 41 -53 41 -73 0 -34 -31 -77
-60 -85 -17 -4 -20 0 -20 23 0 16 5 32 10 35 16 10 12 42 -7 49 -9 4 -23 0
-32 -9 -13 -12 -13 -19 -3 -35 6 -11 12 -31 12 -45 0 -25 -1 -25 -29 -11 -36
19 -54 66 -40 104 10 27 67 92 80 92 3 0 25 -20 48 -45z m-165 -21 c32 -32 9
-86 -37 -86 -40 0 -57 19 -57 63 0 39 0 39 39 39 23 0 46 -7 55 -16z m326 -24
c0 -31 -5 -43 -25 -56 -23 -15 -27 -15 -50 0 -17 11 -25 26 -25 44 0 38 17 52
62 52 38 0 38 0 38 -40z m1080 -15 c0 -20 -5 -25 -24 -25 -14 0 -28 5 -31 10
-12 19 4 40 30 40 20 0 25 -5 25 -25z m-1012 -31 c28 -19 28 -30 -2 -49 -19
-13 -29 -14 -45 -5 -26 13 -27 45 -3 59 23 14 24 14 50 -5z m242 -34 c13 -13
20 -33 20 -60 0 -55 -26 -80 -85 -80 -59 0 -85 25 -85 80 0 55 26 80 85 80 32
0 51 -6 65 -20z m160 -7 c0 -18 -4 -24 -15 -19 -25 9 -45 -22 -45 -70 0 -40
-2 -44 -25 -44 -25 0 -25 1 -25 79 l0 80 55 0 c52 0 55 -2 55 -26z m168 -69
c-3 -87 -5 -98 -27 -115 -19 -15 -37 -19 -75 -17 -45 3 -51 6 -54 26 -3 22 -1
23 32 16 23 -4 42 -2 51 6 24 20 18 26 -24 22 -52 -5 -76 28 -68 90 7 55 27
68 105 68 l64 0 -4 -96z m152 81 c7 -8 15 -44 17 -79 l6 -65 -69 0 c-74 0 -84
6 -84 51 0 29 23 48 59 48 11 0 23 5 27 12 5 8 -4 9 -34 4 -37 -5 -42 -4 -42
12 0 28 9 32 60 32 30 0 52 -6 60 -15z m187 3 c8 -7 13 -35 13 -79 0 -67 -1
-69 -25 -69 -23 0 -25 4 -25 48 0 60 -12 81 -34 63 -11 -9 -16 -30 -16 -62 0
-46 -2 -49 -25 -49 -25 0 -25 1 -25 79 l0 79 62 1 c34 0 68 -5 75 -11z m103
-68 l0 -80 -30 0 -30 0 0 80 0 80 30 0 30 0 0 -80z m160 56 c0 -20 -5 -24 -31
-22 -38 1 -60 -25 -43 -51 8 -12 22 -17 44 -15 28 2 31 0 28 -20 -3 -20 -10
-23 -49 -26 -41 -3 -49 0 -69 25 -17 21 -20 36 -16 63 7 47 38 70 92 70 40 0
44 -2 44 -24z m-1522 -18 c12 -12 22 -27 22 -35 0 -16 -51 -18 -67 -2 -17 17
-43 3 -43 -21 0 -26 27 -37 51 -22 23 15 59 15 59 1 0 -39 -60 -76 -105 -65
-14 4 -44 23 -66 43 l-40 36 38 40 c21 21 47 43 58 48 27 11 65 2 93 -23z
m245 18 c18 -7 45 -28 62 -45 l29 -31 -40 -41 c-27 -26 -52 -42 -76 -46 -32
-5 -41 -1 -68 25 -16 17 -30 35 -30 41 0 15 46 14 70 -1 16 -10 23 -10 37 5
16 16 16 18 0 34 -14 15 -21 15 -37 5 -23 -14 -70 -16 -70 -3 0 18 41 60 63
64 12 2 23 5 25 6 1 0 17 -5 35 -13z m-183 -146 c0 -11 -6 -29 -12 -40 -10
-16 -10 -23 4 -36 9 -9 24 -14 32 -11 18 7 22 42 6 52 -5 3 -10 17 -10 31 0
52 67 11 77 -48 5 -33 1 -41 -40 -85 l-46 -48 -39 39 c-43 41 -55 76 -41 115
18 45 69 69 69 31z m292 -7 c17 -15 17 -17 2 -35 -32 -34 -83 -11 -69 32 8 24
41 26 67 3z m-390 -48 c8 -19 8 -31 0 -50 -10 -21 -18 -25 -57 -25 -44 0 -45
1 -45 31 0 49 16 69 56 69 27 0 37 -5 46 -25z m306 13 c7 -7 12 -29 12 -50 0
-37 -1 -38 -38 -38 -45 0 -62 14 -62 50 0 33 17 50 50 50 14 0 31 -5 38 -12z"/>
<path d="M720 330 c-13 -24 2 -60 25 -60 23 0 38 36 25 60 -6 11 -17 20 -25
20 -8 0 -19 -9 -25 -20z"/>
<path d="M1034 336 c-11 -28 0 -61 21 -61 16 0 20 7 20 35 0 25 -5 36 -18 38
-9 2 -20 -3 -23 -12z"/>
<path d="M1215 289 c-4 -6 -4 -13 -1 -16 8 -8 36 5 36 17 0 13 -27 13 -35 -1z"/>
</g>
</svg>
